<svg width="20" height="20" viewBox="0 0 20 20" fill="none" xmlns="http://www.w3.org/2000/svg">
<g clip-path="url(#clip0_97_1929)">
<path d="M19.717 11.9659C19.4895 11.8256 19.1957 11.8514 18.9987 12.0314C17.5641 13.3327 15.7083 14.0497 13.7743 14.0497C9.48152 14.0497 5.98893 10.5571 5.98893 6.26434C5.98893 4.33013 6.70594 2.47451 8.00721 1.03987C8.18666 0.84212 8.21366 0.549151 8.07267 0.321642C7.93168 0.094743 7.65565 -0.0105427 7.40067 0.0614789C3.04291 1.29546 0 5.32379 0 9.85748C0 15.4715 4.56711 20.0385 10.181 20.0385C14.7147 20.0385 18.7432 16.9956 19.9771 12.6379C20.0502 12.3805 19.9439 12.1068 19.717 11.9659Z" fill="white"/>
<path d="M9.9173 7.9422L11.3361 8.65098L12.0448 10.0699C12.146 10.2728 12.3537 10.4009 12.5806 10.4009C12.8076 10.4009 13.0145 10.2728 13.1163 10.0699L13.8258 8.65098L15.244 7.9422C15.4469 7.84043 15.5749 7.63337 15.5749 7.40647C15.5749 7.17957 15.4469 6.97251 15.244 6.87073L13.8258 6.1618L13.1163 4.74304C12.9127 4.33715 12.2473 4.33715 12.0448 4.74304L11.3361 6.1618L9.9173 6.87073C9.71436 6.97189 9.58618 7.17957 9.58618 7.40647C9.58618 7.63337 9.71436 7.84104 9.9173 7.9422Z" fill="white"/>
<path d="M16.1698 3.2698H16.7687V3.8687C16.7687 4.19967 17.0367 4.46761 17.3676 4.46761C17.6986 4.46761 17.9665 4.19967 17.9665 3.8687V3.2698H18.5654C18.8964 3.2698 19.1643 3.002 19.1643 2.67089C19.1643 2.33992 18.8964 2.07213 18.5654 2.07213H17.9665V1.47322C17.9665 1.14211 17.6986 0.874313 17.3676 0.874313C17.0367 0.874313 16.7687 1.14211 16.7687 1.47322V2.07213H16.1698C15.8388 2.07213 15.571 2.33992 15.571 2.67089C15.571 3.002 15.8388 3.2698 16.1698 3.2698Z" fill="white"/>
</g>
<defs>
<clipPath id="clip0_97_1929">
<rect width="20" height="20" fill="white"/>
</clipPath>
</defs>
</svg>
