<svg width="18" height="18" viewBox="0 0 18 18" fill="none" xmlns="http://www.w3.org/2000/svg">
<path d="M8.99995 4.49163C6.51399 4.49163 4.49158 6.51444 4.49158 9.0004C4.49158 11.4864 6.51399 13.5092 8.99995 13.5092C11.4855 13.5092 13.5083 11.4868 13.5083 9.0004C13.5083 6.51404 11.4855 4.49163 8.99995 4.49163Z" fill="url(#paint0_linear_97_1866)"/>
<path d="M9.00003 3.16634C8.51416 3.16634 8.12036 2.77254 8.12036 2.28707V0.879672C8.12036 0.3938 8.51416 0 9.00003 0C9.48591 0 9.87971 0.3938 9.87971 0.879672V2.28707C9.87971 2.77254 9.48551 3.16634 9.00003 3.16634Z" fill="url(#paint1_linear_97_1866)"/>
<path d="M9.00003 14.8333C8.51416 14.8333 8.12036 15.2271 8.12036 15.7129V17.1199C8.12036 17.6062 8.51416 18 9.00003 18C9.48591 18 9.87971 17.6062 9.87971 17.1199V15.7129C9.87971 15.2271 9.48551 14.8333 9.00003 14.8333Z" fill="url(#paint2_linear_97_1866)"/>
<path d="M13.1246 4.87506C12.7814 4.53148 12.7814 3.97466 13.1246 3.63109L14.1198 2.63583C14.463 2.29265 15.0202 2.29265 15.3638 2.63583C15.7074 2.9794 15.7074 3.53662 15.3638 3.8798L14.3685 4.87506C14.0254 5.21864 13.4685 5.21864 13.1246 4.87506Z" fill="url(#paint3_linear_97_1866)"/>
<path d="M4.87507 13.1253C4.53149 12.7814 3.97467 12.7814 3.63109 13.1253L2.63583 14.1202C2.29265 14.4634 2.29225 15.021 2.63583 15.3642C2.97941 15.7074 3.53663 15.7074 3.87981 15.3642L4.87507 14.3685C5.21865 14.0253 5.21865 13.4681 4.87507 13.1253Z" fill="url(#paint4_linear_97_1866)"/>
<path d="M14.8333 9C14.8333 8.51413 15.2271 8.12033 15.7129 8.12033H17.1203C17.6062 8.12033 18 8.51413 18 9C18 9.48588 17.6062 9.87928 17.1203 9.87928H15.7129C15.2271 9.87928 14.8333 9.48588 14.8333 9Z" fill="url(#paint5_linear_97_1866)"/>
<path d="M3.16634 9C3.16634 8.51413 2.77254 8.12033 2.28667 8.12033H0.879672C0.3938 8.12033 0 8.51413 0 9C0 9.48588 0.3938 9.87928 0.879672 9.87928H2.28707C2.77254 9.87928 3.16634 9.48588 3.16634 9Z" fill="url(#paint6_linear_97_1866)"/>
<path d="M13.1245 13.1253C13.4681 12.7822 14.0253 12.7822 14.3685 13.1253L15.3637 14.1206C15.7073 14.4634 15.7073 15.021 15.3637 15.3642C15.0202 15.7074 14.4633 15.7074 14.1198 15.3642L13.1245 14.3689C12.7809 14.0253 12.7809 13.4685 13.1245 13.1253Z" fill="url(#paint7_linear_97_1866)"/>
<path d="M4.8751 4.87506C5.21867 4.53149 5.21867 3.97466 4.8751 3.63109L3.87983 2.63622C3.53626 2.29265 2.97944 2.29265 2.63586 2.63622C2.29228 2.9794 2.29228 3.53662 2.63586 3.8798L3.63112 4.87506C3.9747 5.21904 4.53152 5.21904 4.8751 4.87506Z" fill="url(#paint8_linear_97_1866)"/>
<defs>
<linearGradient id="paint0_linear_97_1866" x1="4.49158" y1="-6.99297" x2="21.0454" y2="-3.17478" gradientUnits="userSpaceOnUse">
<stop stop-color="#61C2F8"/>
<stop offset="1" stop-color="#9281FF"/>
</linearGradient>
<linearGradient id="paint1_linear_97_1866" x1="8.12036" y1="-4.03261" x2="11.4672" y2="-3.60364" gradientUnits="userSpaceOnUse">
<stop stop-color="#61C2F8"/>
<stop offset="1" stop-color="#9281FF"/>
</linearGradient>
<linearGradient id="paint2_linear_97_1866" x1="8.12036" y1="10.8001" x2="11.4672" y2="11.2291" gradientUnits="userSpaceOnUse">
<stop stop-color="#61C2F8"/>
<stop offset="1" stop-color="#9281FF"/>
</linearGradient>
<linearGradient id="paint3_linear_97_1866" x1="12.8672" y1="-1.1294" x2="17.9238" y2="0.0370182" gradientUnits="userSpaceOnUse">
<stop stop-color="#61C2F8"/>
<stop offset="1" stop-color="#9281FF"/>
</linearGradient>
<linearGradient id="paint4_linear_97_1866" x1="2.3783" y1="9.35964" x2="7.43512" y2="10.5262" gradientUnits="userSpaceOnUse">
<stop stop-color="#61C2F8"/>
<stop offset="1" stop-color="#9281FF"/>
</linearGradient>
<linearGradient id="paint5_linear_97_1866" x1="14.8333" y1="5.88016" x2="20.0557" y2="8.04901" gradientUnits="userSpaceOnUse">
<stop stop-color="#61C2F8"/>
<stop offset="1" stop-color="#9281FF"/>
</linearGradient>
<linearGradient id="paint6_linear_97_1866" x1="1.70137e-07" y1="5.88016" x2="5.22195" y2="8.04854" gradientUnits="userSpaceOnUse">
<stop stop-color="#61C2F8"/>
<stop offset="1" stop-color="#9281FF"/>
</linearGradient>
<linearGradient id="paint7_linear_97_1866" x1="12.8668" y1="9.36099" x2="17.9238" y2="10.5279" gradientUnits="userSpaceOnUse">
<stop stop-color="#61C2F8"/>
<stop offset="1" stop-color="#9281FF"/>
</linearGradient>
<linearGradient id="paint8_linear_97_1866" x1="2.37817" y1="-1.12956" x2="7.4353" y2="0.0370273" gradientUnits="userSpaceOnUse">
<stop stop-color="#61C2F8"/>
<stop offset="1" stop-color="#9281FF"/>
</linearGradient>
</defs>
</svg>
