<svg width="18" height="18" viewBox="0 0 18 18" fill="none" xmlns="http://www.w3.org/2000/svg">
<path d="M9.00056 4.49163C6.5146 4.49163 4.49219 6.51444 4.49219 9.0004C4.49219 11.4864 6.5146 13.5092 9.00056 13.5092C11.4861 13.5092 13.5089 11.4868 13.5089 9.0004C13.5089 6.51404 11.4861 4.49163 9.00056 4.49163Z" fill="url(#paint0_linear_1142_2188)"/>
<path d="M9.00077 3.16634C8.51489 3.16634 8.12109 2.77254 8.12109 2.28707V0.879672C8.12109 0.3938 8.51489 0 9.00077 0C9.48664 0 9.88044 0.3938 9.88044 0.879672V2.28707C9.88044 2.77254 9.48624 3.16634 9.00077 3.16634Z" fill="url(#paint1_linear_1142_2188)"/>
<path d="M9.00077 14.8333C8.51489 14.8333 8.12109 15.2271 8.12109 15.7129V17.1199C8.12109 17.6062 8.51489 18 9.00077 18C9.48664 18 9.88044 17.6062 9.88044 17.1199V15.7129C9.88044 15.2271 9.48624 14.8333 9.00077 14.8333Z" fill="url(#paint2_linear_1142_2188)"/>
<path d="M13.1246 4.87506C12.7814 4.53148 12.7814 3.97466 13.1246 3.63109L14.1198 2.63583C14.463 2.29265 15.0202 2.29265 15.3638 2.63583C15.7074 2.9794 15.7074 3.53662 15.3638 3.8798L14.3685 4.87506C14.0254 5.21864 13.4685 5.21864 13.1246 4.87506Z" fill="url(#paint3_linear_1142_2188)"/>
<path d="M4.87568 13.1253C4.5321 12.7814 3.97528 12.7814 3.6317 13.1253L2.63644 14.1202C2.29326 14.4634 2.29286 15.021 2.63644 15.3642C2.98002 15.7074 3.53724 15.7074 3.88042 15.3642L4.87568 14.3685C5.21926 14.0253 5.21926 13.4681 4.87568 13.1253Z" fill="url(#paint4_linear_1142_2188)"/>
<path d="M14.834 9C14.834 8.51413 15.2278 8.12033 15.7137 8.12033H17.1211C17.6069 8.12033 18.0007 8.51413 18.0007 9C18.0007 9.48588 17.6069 9.87928 17.1211 9.87928H15.7137C15.2278 9.87928 14.834 9.48588 14.834 9Z" fill="url(#paint5_linear_1142_2188)"/>
<path d="M3.16634 9C3.16634 8.51413 2.77254 8.12033 2.28667 8.12033H0.879672C0.3938 8.12033 0 8.51413 0 9C0 9.48588 0.3938 9.87928 0.879672 9.87928H2.28707C2.77254 9.87928 3.16634 9.48588 3.16634 9Z" fill="url(#paint6_linear_1142_2188)"/>
<path d="M13.1249 13.1253C13.4684 12.7822 14.0257 12.7822 14.3688 13.1253L15.3641 14.1206C15.7077 14.4634 15.7077 15.021 15.3641 15.3642C15.0205 15.7074 14.4637 15.7074 14.1201 15.3642L13.1249 14.3689C12.7813 14.0253 12.7813 13.4685 13.1249 13.1253Z" fill="url(#paint7_linear_1142_2188)"/>
<path d="M4.87583 4.87506C5.21941 4.53149 5.21941 3.97466 4.87583 3.63109L3.88057 2.63622C3.53699 2.29265 2.98017 2.29265 2.63659 2.63622C2.29301 2.9794 2.29301 3.53662 2.63659 3.8798L3.63185 4.87506C3.97543 5.21904 4.53225 5.21904 4.87583 4.87506Z" fill="url(#paint8_linear_1142_2188)"/>
<defs>
<linearGradient id="paint0_linear_1142_2188" x1="4.49219" y1="-6.99297" x2="21.046" y2="-3.17478" gradientUnits="userSpaceOnUse">
<stop stop-color="#61C2F8"/>
<stop offset="1" stop-color="#9281FF"/>
</linearGradient>
<linearGradient id="paint1_linear_1142_2188" x1="8.12109" y1="-4.03261" x2="11.4679" y2="-3.60364" gradientUnits="userSpaceOnUse">
<stop stop-color="#61C2F8"/>
<stop offset="1" stop-color="#9281FF"/>
</linearGradient>
<linearGradient id="paint2_linear_1142_2188" x1="8.12109" y1="10.8001" x2="11.4679" y2="11.2291" gradientUnits="userSpaceOnUse">
<stop stop-color="#61C2F8"/>
<stop offset="1" stop-color="#9281FF"/>
</linearGradient>
<linearGradient id="paint3_linear_1142_2188" x1="12.8672" y1="-1.1294" x2="17.9238" y2="0.0370182" gradientUnits="userSpaceOnUse">
<stop stop-color="#61C2F8"/>
<stop offset="1" stop-color="#9281FF"/>
</linearGradient>
<linearGradient id="paint4_linear_1142_2188" x1="2.37891" y1="9.35964" x2="7.43573" y2="10.5262" gradientUnits="userSpaceOnUse">
<stop stop-color="#61C2F8"/>
<stop offset="1" stop-color="#9281FF"/>
</linearGradient>
<linearGradient id="paint5_linear_1142_2188" x1="14.834" y1="5.88016" x2="20.0564" y2="8.04901" gradientUnits="userSpaceOnUse">
<stop stop-color="#61C2F8"/>
<stop offset="1" stop-color="#9281FF"/>
</linearGradient>
<linearGradient id="paint6_linear_1142_2188" x1="1.70137e-07" y1="5.88016" x2="5.22195" y2="8.04854" gradientUnits="userSpaceOnUse">
<stop stop-color="#61C2F8"/>
<stop offset="1" stop-color="#9281FF"/>
</linearGradient>
<linearGradient id="paint7_linear_1142_2188" x1="12.8672" y1="9.36099" x2="17.9241" y2="10.5279" gradientUnits="userSpaceOnUse">
<stop stop-color="#61C2F8"/>
<stop offset="1" stop-color="#9281FF"/>
</linearGradient>
<linearGradient id="paint8_linear_1142_2188" x1="2.37891" y1="-1.12956" x2="7.43603" y2="0.0370273" gradientUnits="userSpaceOnUse">
<stop stop-color="#61C2F8"/>
<stop offset="1" stop-color="#9281FF"/>
</linearGradient>
</defs>
</svg>
